<svg id="Layer_2" data-name="Layer 2" xmlns="http://www.w3.org/2000/svg" viewBox="0 0 288 77.74"><defs><style>.cls-1{fill:#6bc787;}.cls-2{fill:#2f8eed;}.cls-3{fill:#7f7f7f;}</style></defs><title>myathina-logo-svg</title><path class="cls-1" d="M3,14h9.25v6.08h.16a13.15,13.15,0,0,1,4.18-4.9A12.67,12.67,0,0,1,24.33,13q9.17,0,12.17,7.22a13.75,13.75,0,0,1,5.27-5.48A15.42,15.42,0,0,1,49.31,13a15,15,0,0,1,6.58,1.3,11.39,11.39,0,0,1,4.33,3.56,14.79,14.79,0,0,1,2.4,5.32,28.27,28.27,0,0,1,.73,6.53V52.94H56.57a3,3,0,0,1-3-2.95V30.88a18.33,18.33,0,0,0-.32-3.44,8.38,8.38,0,0,0-1.14-2.93,5.74,5.74,0,0,0-2.19-2,7.55,7.55,0,0,0-3.57-.73,8,8,0,0,0-3.85.85A7.58,7.58,0,0,0,40,24.92a9.19,9.19,0,0,0-1.46,3.24,15.42,15.42,0,0,0-.45,3.7V52.94H28.31V29.75A9.8,9.8,0,0,0,26.77,24c-1-1.43-2.74-2.15-5.11-2.15a9.3,9.3,0,0,0-4.1.81A7.85,7.85,0,0,0,14.8,24.8,8.63,8.63,0,0,0,13.22,28a14.34,14.34,0,0,0-.49,3.73V52.94H3Z" transform="translate(-3 -1.16)"/><path class="cls-1" d="M62.21,14h8.13a3.82,3.82,0,0,1,3.54,2.39L83.79,41H84l9.73-27h10.14L85.41,61.3a29.41,29.41,0,0,1-2.31,4.83,14,14,0,0,1-3,3.48,11.2,11.2,0,0,1-4,2.11,19.55,19.55,0,0,1-5.55.69,28.84,28.84,0,0,1-7.47-1l1.22-8.76a20.84,20.84,0,0,0,2.39.69,11.54,11.54,0,0,0,2.56.28,12.13,12.13,0,0,0,3-.32,5.58,5.58,0,0,0,2.07-1,5.51,5.51,0,0,0,1.42-1.78c.37-.73.78-1.61,1.21-2.64l1.87-4.62Z" transform="translate(-3 -1.16)"/><path class="cls-2" d="M127.43,47.59h-.25a12.5,12.5,0,0,1-5.35,4.83,16.79,16.79,0,0,1-7.14,1.5,19.2,19.2,0,0,1-5.23-.73A14.28,14.28,0,0,1,104.92,51a11.26,11.26,0,0,1-3.21-3.65,10.38,10.38,0,0,1-1.21-5.11,11.77,11.77,0,0,1,1.13-5.4,11.18,11.18,0,0,1,3-3.73,15.62,15.62,0,0,1,4.42-2.39,31,31,0,0,1,5.24-1.34,49.94,49.94,0,0,1,5.47-.57q2.76-.12,5.19-.12h2.44V27.64a6.32,6.32,0,0,0-2.52-5.48,10.68,10.68,0,0,0-6.41-1.82,15.1,15.1,0,0,0-5.76,1.09,15.52,15.52,0,0,0-2.23,1.13,3.92,3.92,0,0,1-4.8-.57L103,19.28a18.88,18.88,0,0,1,7.58-4.78,27.82,27.82,0,0,1,9-1.46,22.57,22.57,0,0,1,7,.93,15.4,15.4,0,0,1,4.71,2.39,10.78,10.78,0,0,1,2.88,3.37,15.91,15.91,0,0,1,1.46,3.85,21.44,21.44,0,0,1,.52,3.77q.09,1.83.09,3.21V52.94h-6.28a2.48,2.48,0,0,1-2.48-2.48Zm-.57-12.08h-2c-1.35,0-2.87.05-4.54.16a23.69,23.69,0,0,0-4.75.77,10.81,10.81,0,0,0-3.77,1.78,3.9,3.9,0,0,0-1.54,3.29,4.1,4.1,0,0,0,.61,2.31,5.41,5.41,0,0,0,1.58,1.58,6.5,6.5,0,0,0,2.19.93,10.62,10.62,0,0,0,2.43.29c3.36,0,5.83-.8,7.43-2.39a8.86,8.86,0,0,0,2.39-6.53Z" transform="translate(-3 -1.16)"/><path class="cls-2" d="M137.24,22.28V14h5.9V2.74h9.73V14h10.71v8.27H152.87v17A8.47,8.47,0,0,0,154,43.94c.73,1.14,2.18,1.7,4.34,1.7a15.57,15.57,0,0,0,2.84-.28,6,6,0,0,0,2.44-.93v8.19a12.52,12.52,0,0,1-3.77,1,31.64,31.64,0,0,1-3.94.29,20.19,20.19,0,0,1-6.37-.85,8.45,8.45,0,0,1-3.89-2.6,9.79,9.79,0,0,1-2-4.34,30.54,30.54,0,0,1-.52-6V22.28Z" transform="translate(-3 -1.16)"/><path class="cls-2" d="M176.15,19.45h.16a11.36,11.36,0,0,1,4-4.43,12.85,12.85,0,0,1,7.43-2,15.22,15.22,0,0,1,6.61,1.3,12.54,12.54,0,0,1,4.42,3.4,13.05,13.05,0,0,1,2.43,4.87,22.29,22.29,0,0,1,.73,5.76V52.94h-9.73V33.23c0-1.08-.06-2.28-.16-3.6a13.09,13.09,0,0,0-.86-3.74A7,7,0,0,0,189,23a6.16,6.16,0,0,0-4-1.17,9.33,9.33,0,0,0-4.1.81,7.81,7.81,0,0,0-2.75,2.19A8.8,8.8,0,0,0,176.63,28a14.34,14.34,0,0,0-.48,3.73V52.94h-9.74V1.22h7.25a2.48,2.48,0,0,1,2.49,2.48Z" transform="translate(-3 -1.16)"/><path class="cls-2" d="M217.84,14h9.24v6.25h.17a13.62,13.62,0,0,1,4.21-5.07A12.53,12.53,0,0,1,239.17,13a15.16,15.16,0,0,1,6.61,1.3,12.45,12.45,0,0,1,4.42,3.4,12.76,12.76,0,0,1,2.43,4.87,22.29,22.29,0,0,1,.74,5.76V52.94h-9.74V33.23c0-1.08,0-2.28-.16-3.6a13.08,13.08,0,0,0-.85-3.74A7.07,7.07,0,0,0,240.47,23a6.2,6.2,0,0,0-4-1.17,9.29,9.29,0,0,0-4.09.81,7.85,7.85,0,0,0-2.76,2.19A8.63,8.63,0,0,0,228.06,28a13.93,13.93,0,0,0-.49,3.73V52.94h-9.73Z" transform="translate(-3 -1.16)"/><path class="cls-2" d="M282.24,47.59H282a12.52,12.52,0,0,1-5.36,4.83,16.78,16.78,0,0,1-7.13,1.5,19.27,19.27,0,0,1-5.24-.73A14.39,14.39,0,0,1,259.73,51a11.35,11.35,0,0,1-3.2-3.65,10.38,10.38,0,0,1-1.22-5.11,11.77,11.77,0,0,1,1.14-5.4,11.06,11.06,0,0,1,3-3.73,15.48,15.48,0,0,1,4.42-2.39,30.84,30.84,0,0,1,5.23-1.34,50.12,50.12,0,0,1,5.48-.57q2.75-.12,5.19-.12h2.43V27.64a6.34,6.34,0,0,0-2.51-5.48,10.71,10.71,0,0,0-6.41-1.82,15,15,0,0,0-5.76,1.09,16.34,16.34,0,0,0-2.5,1.29,3.35,3.35,0,0,1-4.2-.4l-3-3a18.88,18.88,0,0,1,7.58-4.78,27.72,27.72,0,0,1,9-1.46,22.68,22.68,0,0,1,7,.93,15.34,15.34,0,0,1,4.7,2.39,10.65,10.65,0,0,1,2.88,3.37,15.51,15.51,0,0,1,1.46,3.85,21.49,21.49,0,0,1,.53,3.77c.05,1.22.08,2.29.08,3.21V52.94h-6.28a2.48,2.48,0,0,1-2.48-2.48Zm-.57-12.08h-2c-1.35,0-2.86.05-4.54.16a23.59,23.59,0,0,0-4.74.77,10.72,10.72,0,0,0-3.77,1.78A3.91,3.91,0,0,0,265,41.51a4.18,4.18,0,0,0,.61,2.31,5.66,5.66,0,0,0,1.58,1.58,6.5,6.5,0,0,0,2.19.93,10.77,10.77,0,0,0,2.44.29q5,0,7.42-2.39a8.86,8.86,0,0,0,2.39-6.53Z" transform="translate(-3 -1.16)"/><path class="cls-2" d="M207.42,14.27,210,12.33l2.34,1.93,2-1.29-4-11.55a.44.44,0,0,0-.8,0L205.4,13Z" transform="translate(-3 -1.16)"/><polygon class="cls-2" points="211.76 13.51 209.24 15.11 206.98 13.23 204.5 15.09 202.02 13.51 202.02 44.9 211.76 44.9 211.76 13.51"/><path class="cls-2" d="M205,47.42v4a1.57,1.57,0,0,0,1.57,1.56h6.6a1.57,1.57,0,0,0,1.57-1.56v-4Z" transform="translate(-3 -1.16)"/><path class="cls-3" d="M117.41,65.72V67h0a2.31,2.31,0,0,1,1.2-1.14,4.54,4.54,0,0,1,1.79-.35,4.19,4.19,0,0,1,1.9.4A3.64,3.64,0,0,1,123.68,67a4.59,4.59,0,0,1,.81,1.57,6.84,6.84,0,0,1,0,3.77,4.52,4.52,0,0,1-.8,1.56,3.73,3.73,0,0,1-1.34,1,4.44,4.44,0,0,1-1.88.38,4.4,4.4,0,0,1-.77-.07,4.31,4.31,0,0,1-.85-.24,3.24,3.24,0,0,1-.79-.44,2.46,2.46,0,0,1-.62-.7h0v4.83h-1.54v-13ZM123,69.05a3.51,3.51,0,0,0-.53-1.12,2.54,2.54,0,0,0-.91-.78,2.8,2.8,0,0,0-1.3-.29A2.55,2.55,0,0,0,118,68a3.31,3.31,0,0,0-.5,1.13,5.55,5.55,0,0,0-.15,1.29,5.32,5.32,0,0,0,.16,1.33,3.3,3.3,0,0,0,.52,1.14,2.58,2.58,0,0,0,.91.79,2.89,2.89,0,0,0,1.37.3,2.59,2.59,0,0,0,1.33-.31,2.5,2.5,0,0,0,.86-.82,3.33,3.33,0,0,0,.47-1.16,5.92,5.92,0,0,0,.15-1.34A4.94,4.94,0,0,0,123,69.05Z" transform="translate(-3 -1.16)"/><path class="cls-3" d="M133.22,74.5a4.2,4.2,0,0,1-2.65.8,4.85,4.85,0,0,1-1.95-.36,3.83,3.83,0,0,1-1.39-1,4.33,4.33,0,0,1-.84-1.56,7.2,7.2,0,0,1-.32-2,5.6,5.6,0,0,1,.33-2,4.56,4.56,0,0,1,.91-1.54,4.14,4.14,0,0,1,1.4-1,4.31,4.31,0,0,1,1.77-.36,3.8,3.8,0,0,1,2.08.52,4.16,4.16,0,0,1,1.33,1.31,5.37,5.37,0,0,1,.69,1.74,7.55,7.55,0,0,1,.15,1.8h-7a3.76,3.76,0,0,0,.15,1.17,2.6,2.6,0,0,0,1.45,1.66,3.22,3.22,0,0,0,1.33.26,2.59,2.59,0,0,0,1.6-.46,2.16,2.16,0,0,0,.83-1.38h1.53A3.72,3.72,0,0,1,133.22,74.5Zm-.37-6a2.79,2.79,0,0,0-.56-.85,2.87,2.87,0,0,0-.84-.56,2.61,2.61,0,0,0-1.06-.21,2.59,2.59,0,0,0-1.91.78,2.63,2.63,0,0,0-.54.84,3.6,3.6,0,0,0-.24,1h5.4A3.24,3.24,0,0,0,132.85,68.48Z" transform="translate(-3 -1.16)"/><path class="cls-3" d="M137.73,65.72v2h0A4.22,4.22,0,0,1,139.14,66a3.4,3.4,0,0,1,2.07-.51v1.63a4.39,4.39,0,0,0-1.58.26,2.51,2.51,0,0,0-1,.74,3,3,0,0,0-.58,1.19,6.49,6.49,0,0,0-.18,1.61V75.1h-1.55V65.72Z" transform="translate(-3 -1.16)"/><path class="cls-3" d="M143.55,73a1.73,1.73,0,0,0,.58.56,2.46,2.46,0,0,0,.8.3,4.53,4.53,0,0,0,.91.09,5.3,5.3,0,0,0,.77-.06,2.46,2.46,0,0,0,.73-.2,1.27,1.27,0,0,0,.55-.42,1.12,1.12,0,0,0,.22-.72,1,1,0,0,0-.45-.91,4,4,0,0,0-1.14-.5c-.45-.12-.94-.24-1.48-.34a7.5,7.5,0,0,1-1.48-.44,3,3,0,0,1-1.13-.79,2.06,2.06,0,0,1-.45-1.41,2.26,2.26,0,0,1,.31-1.22,2.71,2.71,0,0,1,.82-.83,4,4,0,0,1,1.13-.47,5.26,5.26,0,0,1,1.24-.15,7.52,7.52,0,0,1,1.47.13,3.31,3.31,0,0,1,1.19.48,2.38,2.38,0,0,1,.82.9,3.49,3.49,0,0,1,.37,1.43h-1.55a1.55,1.55,0,0,0-.23-.75,1.59,1.59,0,0,0-.51-.49,2.52,2.52,0,0,0-.68-.26,3.82,3.82,0,0,0-.75-.08,5.49,5.49,0,0,0-.7,0,2.59,2.59,0,0,0-.65.19,1.46,1.46,0,0,0-.47.37.92.92,0,0,0-.18.59.85.85,0,0,0,.28.66,2.31,2.31,0,0,0,.72.44,6.76,6.76,0,0,0,1,.29l1.09.24c.38.09.76.19,1.13.31a3.58,3.58,0,0,1,1,.48,2.19,2.19,0,0,1,.69.76,2.14,2.14,0,0,1,.27,1.12,2.6,2.6,0,0,1-.36,1.42,2.73,2.73,0,0,1-.92.9,4,4,0,0,1-1.29.49,7.76,7.76,0,0,1-1.43.13,6.54,6.54,0,0,1-1.49-.16A3.62,3.62,0,0,1,143,74.6a2.67,2.67,0,0,1-.87-1,3.3,3.3,0,0,1-.36-1.48h1.54A1.81,1.81,0,0,0,143.55,73Z" transform="translate(-3 -1.16)"/><path class="cls-3" d="M151.23,68.48a4.61,4.61,0,0,1,.88-1.56,4,4,0,0,1,1.43-1,5.27,5.27,0,0,1,3.93,0,4.16,4.16,0,0,1,1.43,1,4.76,4.76,0,0,1,.87,1.56,6.41,6.41,0,0,1,.29,1.94,6.23,6.23,0,0,1-.29,1.92,4.52,4.52,0,0,1-.87,1.55,4,4,0,0,1-1.43,1,5.4,5.4,0,0,1-3.93,0,3.86,3.86,0,0,1-1.43-1,4.38,4.38,0,0,1-.88-1.55,6.23,6.23,0,0,1-.29-1.92A6.41,6.41,0,0,1,151.23,68.48Zm1.58,3.45a3.21,3.21,0,0,0,.62,1.11,2.61,2.61,0,0,0,.94.68,2.7,2.7,0,0,0,1.13.24,2.78,2.78,0,0,0,1.14-.24,2.66,2.66,0,0,0,.93-.68,3.07,3.07,0,0,0,.63-1.11,4.66,4.66,0,0,0,.22-1.51,4.72,4.72,0,0,0-.22-1.52,3.16,3.16,0,0,0-.63-1.11,2.57,2.57,0,0,0-.93-.69,2.78,2.78,0,0,0-1.14-.24,2.7,2.7,0,0,0-1.13.24,2.52,2.52,0,0,0-.94.69,3.31,3.31,0,0,0-.62,1.11,4.46,4.46,0,0,0-.23,1.52A4.4,4.4,0,0,0,152.81,71.93Z" transform="translate(-3 -1.16)"/><path class="cls-3" d="M163.33,65.72V67.2h0a3.26,3.26,0,0,1,3-1.7,4.13,4.13,0,0,1,1.55.25,2.53,2.53,0,0,1,1.53,1.79,6,6,0,0,1,.15,1.39V75.1H168.1V68.75a1.76,1.76,0,0,0-1.91-1.89,3,3,0,0,0-1.22.22,2.25,2.25,0,0,0-.86.61,2.62,2.62,0,0,0-.52.94,3.68,3.68,0,0,0-.17,1.17v5.3h-1.55V65.72Z" transform="translate(-3 -1.16)"/><path class="cls-3" d="M180.28,75.07a2.22,2.22,0,0,1-1.1.23,1.37,1.37,0,0,1-1-.33,1.5,1.5,0,0,1-.35-1.1,3.73,3.73,0,0,1-1.48,1.1,5,5,0,0,1-1.83.33,5.19,5.19,0,0,1-1.2-.14,2.82,2.82,0,0,1-1-.46,2,2,0,0,1-.66-.81,2.6,2.6,0,0,1-.25-1.2,2.8,2.8,0,0,1,.27-1.31,2.41,2.41,0,0,1,.72-.83,3.31,3.31,0,0,1,1-.48,11.06,11.06,0,0,1,1.17-.27c.42-.08.82-.15,1.2-.19a6.15,6.15,0,0,0,1-.18,1.6,1.6,0,0,0,.69-.35.84.84,0,0,0,.26-.66,1.63,1.63,0,0,0-.19-.82,1.38,1.38,0,0,0-.49-.47,2.09,2.09,0,0,0-.68-.22,6,6,0,0,0-.73,0,3.26,3.26,0,0,0-1.64.37,1.58,1.58,0,0,0-.7,1.41h-1.55a3.39,3.39,0,0,1,.37-1.47,2.62,2.62,0,0,1,.87-1,3.65,3.65,0,0,1,1.24-.54,6.57,6.57,0,0,1,1.5-.16,8.9,8.9,0,0,1,1.26.09,3.25,3.25,0,0,1,1.14.37,2.19,2.19,0,0,1,.81.79,2.48,2.48,0,0,1,.31,1.32v4.82a3.16,3.16,0,0,0,.07.8c0,.17.18.25.42.25a1.78,1.78,0,0,0,.47-.07Zm-2.5-4.82a2,2,0,0,1-.76.32c-.32.07-.65.12-1,.16s-.7.09-1.05.15a3.69,3.69,0,0,0-.94.26,1.68,1.68,0,0,0-.68.51,1.44,1.44,0,0,0-.27.92,1.29,1.29,0,0,0,.16.64,1.24,1.24,0,0,0,.4.42,1.63,1.63,0,0,0,.57.24,3.11,3.11,0,0,0,.69.07,3.67,3.67,0,0,0,1.31-.21,2.83,2.83,0,0,0,.89-.52,2.06,2.06,0,0,0,.51-.69,1.86,1.86,0,0,0,.16-.69Z" transform="translate(-3 -1.16)"/><path class="cls-3" d="M183.35,62.14v13h-1.54v-13Z" transform="translate(-3 -1.16)"/><path class="cls-3" d="M185.84,64V62.14h1.54V64Zm1.54,1.69V75.1h-1.54V65.72Z" transform="translate(-3 -1.16)"/><path class="cls-3" d="M194.68,67.08h-5.3V65.72h7.3v1l-5.74,7h6V75.1H189V73.92Z" transform="translate(-3 -1.16)"/><path class="cls-3" d="M198.58,64V62.14h1.55V64Zm1.55,1.69V75.1h-1.55V65.72Z" transform="translate(-3 -1.16)"/><path class="cls-3" d="M204,65.72V67.2h0a3.26,3.26,0,0,1,3.05-1.7,4.13,4.13,0,0,1,1.55.25,2.53,2.53,0,0,1,1.53,1.79,6,6,0,0,1,.15,1.39V75.1h-1.54V68.75a1.76,1.76,0,0,0-1.91-1.89,3,3,0,0,0-1.22.22,2.25,2.25,0,0,0-.86.61,2.62,2.62,0,0,0-.52.94,3.68,3.68,0,0,0-.17,1.17v5.3h-1.55V65.72Z" transform="translate(-3 -1.16)"/><path class="cls-3" d="M219.66,77.75a4.25,4.25,0,0,1-3.3,1.15,6.25,6.25,0,0,1-1.34-.15,4.13,4.13,0,0,1-1.23-.47,2.88,2.88,0,0,1-.92-.85,2.52,2.52,0,0,1-.4-1.29H214a1.16,1.16,0,0,0,.26.71,1.87,1.87,0,0,0,.6.47,2.69,2.69,0,0,0,.77.26,4.52,4.52,0,0,0,.8.08,2.93,2.93,0,0,0,1.29-.26,2.47,2.47,0,0,0,.87-.73,3,3,0,0,0,.5-1.11,6.5,6.5,0,0,0,.15-1.44V73.5h0A2.56,2.56,0,0,1,218,74.78a3.67,3.67,0,0,1-1.72.41,4,4,0,0,1-1.83-.38,3.77,3.77,0,0,1-1.31-1,4.53,4.53,0,0,1-.79-1.51,6.42,6.42,0,0,1-.26-1.83,6.92,6.92,0,0,1,.22-1.71,4.55,4.55,0,0,1,.72-1.6A4,4,0,0,1,214.4,66a4.14,4.14,0,0,1,2-.46,3.44,3.44,0,0,1,1.63.39,2.75,2.75,0,0,1,1.17,1.17h0V65.72h1.46V74.3A5,5,0,0,1,219.66,77.75Zm-2-4.22a2.56,2.56,0,0,0,.87-.83,4.36,4.36,0,0,0,.48-1.17,5.92,5.92,0,0,0,.15-1.31,5.57,5.57,0,0,0-.14-1.22,3.51,3.51,0,0,0-.47-1.08,2.33,2.33,0,0,0-.82-.77,2.5,2.5,0,0,0-1.24-.29,2.65,2.65,0,0,0-1.27.28,2.5,2.5,0,0,0-.86.75A3.09,3.09,0,0,0,213.9,69a5.56,5.56,0,0,0-.16,1.29,6.76,6.76,0,0,0,.13,1.27,3.67,3.67,0,0,0,.44,1.16,2.27,2.27,0,0,0,2.08,1.15A2.5,2.5,0,0,0,217.69,73.53Z" transform="translate(-3 -1.16)"/><path class="cls-3" d="M229.72,62.14v13h-1.54v-13Z" transform="translate(-3 -1.16)"/><path class="cls-3" d="M238.76,74.5a4.2,4.2,0,0,1-2.65.8,4.85,4.85,0,0,1-2-.36,3.83,3.83,0,0,1-1.39-1,4.19,4.19,0,0,1-.84-1.56,7.2,7.2,0,0,1-.32-2,5.6,5.6,0,0,1,.33-2,4.56,4.56,0,0,1,.91-1.54,4.14,4.14,0,0,1,1.4-1A4.31,4.31,0,0,1,236,65.5a3.8,3.8,0,0,1,2.08.52,4.16,4.16,0,0,1,1.33,1.31,5.14,5.14,0,0,1,.68,1.74,7.57,7.57,0,0,1,.16,1.8h-7a3.76,3.76,0,0,0,.15,1.17,2.64,2.64,0,0,0,.52,1,2.67,2.67,0,0,0,.93.68,3.22,3.22,0,0,0,1.33.26,2.59,2.59,0,0,0,1.6-.46,2.16,2.16,0,0,0,.83-1.38h1.52A3.71,3.71,0,0,1,238.76,74.5Zm-.37-6a2.79,2.79,0,0,0-.56-.85,2.87,2.87,0,0,0-.84-.56,2.61,2.61,0,0,0-1.06-.21,2.67,2.67,0,0,0-1.08.21,2.56,2.56,0,0,0-.83.57,2.63,2.63,0,0,0-.54.84,3.6,3.6,0,0,0-.24,1h5.4A3.24,3.24,0,0,0,238.39,68.48Z" transform="translate(-3 -1.16)"/><path class="cls-3" d="M250.18,75.07a2.24,2.24,0,0,1-1.11.23,1.34,1.34,0,0,1-.95-.33,1.5,1.5,0,0,1-.35-1.1,3.8,3.8,0,0,1-1.48,1.1,5,5,0,0,1-1.83.33,5.19,5.19,0,0,1-1.2-.14,2.67,2.67,0,0,1-1-.46,2.15,2.15,0,0,1-.67-.81,2.73,2.73,0,0,1-.24-1.2,2.8,2.8,0,0,1,.27-1.31,2.41,2.41,0,0,1,.72-.83,3.25,3.25,0,0,1,1-.48,11.86,11.86,0,0,1,1.18-.27c.42-.08.82-.15,1.2-.19a6.35,6.35,0,0,0,1-.18,1.6,1.6,0,0,0,.69-.35.83.83,0,0,0,.25-.66,1.53,1.53,0,0,0-.19-.82,1.3,1.3,0,0,0-.49-.47,2,2,0,0,0-.67-.22,6.11,6.11,0,0,0-.73,0,3.26,3.26,0,0,0-1.64.37,1.61,1.61,0,0,0-.71,1.41h-1.54a3.53,3.53,0,0,1,.36-1.47,2.74,2.74,0,0,1,.88-1,3.57,3.57,0,0,1,1.24-.54,6.51,6.51,0,0,1,1.5-.16,8.9,8.9,0,0,1,1.26.09,3.14,3.14,0,0,1,1.13.37,2.14,2.14,0,0,1,.82.79,2.48,2.48,0,0,1,.31,1.32v4.82a3.86,3.86,0,0,0,.06.8c.05.17.19.25.43.25a1.78,1.78,0,0,0,.47-.07Zm-2.5-4.82a2,2,0,0,1-.77.32,9.31,9.31,0,0,1-1,.16l-1,.15a3.58,3.58,0,0,0-.94.26,1.68,1.68,0,0,0-.68.51,1.44,1.44,0,0,0-.27.92,1.19,1.19,0,0,0,.16.64,1.24,1.24,0,0,0,.4.42,1.63,1.63,0,0,0,.57.24,3.11,3.11,0,0,0,.69.07,3.67,3.67,0,0,0,1.31-.21,2.77,2.77,0,0,0,.88-.52,2.06,2.06,0,0,0,.51-.69,1.7,1.7,0,0,0,.17-.69Z" transform="translate(-3 -1.16)"/><path class="cls-3" d="M253,65.72v2h0A4.22,4.22,0,0,1,254.43,66a3.36,3.36,0,0,1,2.07-.51v1.63a4.35,4.35,0,0,0-1.58.26,2.39,2.39,0,0,0-1,.74,3,3,0,0,0-.58,1.19,6.47,6.47,0,0,0-.19,1.61V75.1h-1.54V65.72Z" transform="translate(-3 -1.16)"/><path class="cls-3" d="M259.44,65.72V67.2h0a3.26,3.26,0,0,1,3-1.7,4.07,4.07,0,0,1,1.54.25,2.56,2.56,0,0,1,1,.71,2.75,2.75,0,0,1,.54,1.08,6,6,0,0,1,.15,1.39V75.1h-1.54V68.75a1.86,1.86,0,0,0-.51-1.38,1.9,1.9,0,0,0-1.4-.51,3.11,3.11,0,0,0-1.23.22,2.32,2.32,0,0,0-.86.61,2.78,2.78,0,0,0-.52.94,4,4,0,0,0-.17,1.17v5.3H258V65.72Z" transform="translate(-3 -1.16)"/><path class="cls-3" d="M268.17,64V62.14h1.55V64Zm1.55,1.69V75.1h-1.55V65.72Z" transform="translate(-3 -1.16)"/><path class="cls-3" d="M273.57,65.72V67.2h0a3.26,3.26,0,0,1,3-1.7,4.13,4.13,0,0,1,1.55.25,2.53,2.53,0,0,1,1.53,1.79,6,6,0,0,1,.15,1.39V75.1h-1.54V68.75a1.76,1.76,0,0,0-1.91-1.89,3,3,0,0,0-1.22.22,2.25,2.25,0,0,0-.86.61,2.62,2.62,0,0,0-.52.94,3.68,3.68,0,0,0-.17,1.17v5.3h-1.55V65.72Z" transform="translate(-3 -1.16)"/><path class="cls-3" d="M289.25,77.75A4.25,4.25,0,0,1,286,78.9a6.25,6.25,0,0,1-1.34-.15,4.13,4.13,0,0,1-1.23-.47,2.88,2.88,0,0,1-.92-.85,2.52,2.52,0,0,1-.4-1.29h1.55a1.16,1.16,0,0,0,.26.71,1.87,1.87,0,0,0,.6.47,2.69,2.69,0,0,0,.77.26,4.52,4.52,0,0,0,.8.08,2.93,2.93,0,0,0,1.29-.26,2.47,2.47,0,0,0,.87-.73,3,3,0,0,0,.5-1.11,6.5,6.5,0,0,0,.15-1.44V73.5h0a2.56,2.56,0,0,1-1.21,1.28,3.67,3.67,0,0,1-1.72.41,4,4,0,0,1-1.83-.38,3.77,3.77,0,0,1-1.31-1,4.53,4.53,0,0,1-.79-1.51,6.42,6.42,0,0,1-.26-1.83,6.92,6.92,0,0,1,.22-1.71,4.55,4.55,0,0,1,.72-1.6A4,4,0,0,1,284,66,4.14,4.14,0,0,1,286,65.5a3.44,3.44,0,0,1,1.63.39,2.68,2.68,0,0,1,1.16,1.17h0V65.72h1.46V74.3A5,5,0,0,1,289.25,77.75Zm-2-4.22a2.56,2.56,0,0,0,.87-.83,4.36,4.36,0,0,0,.48-1.17,5.92,5.92,0,0,0,.15-1.31,5.57,5.57,0,0,0-.14-1.22,3.51,3.51,0,0,0-.47-1.08,2.42,2.42,0,0,0-.82-.77,2.5,2.5,0,0,0-1.24-.29,2.62,2.62,0,0,0-1.27.28,2.5,2.5,0,0,0-.86.75,3.09,3.09,0,0,0-.49,1.09,5.56,5.56,0,0,0-.16,1.29,6.76,6.76,0,0,0,.13,1.27,3.67,3.67,0,0,0,.44,1.16A2.27,2.27,0,0,0,286,73.85,2.5,2.5,0,0,0,287.28,73.53Z" transform="translate(-3 -1.16)"/></svg>