<?xml version="1.0" encoding="utf-8"?>
<!-- Generator: Adobe Illustrator 24.0.1, SVG Export Plug-In . SVG Version: 6.00 Build 0)  -->
<svg version="1.1" xmlns="http://www.w3.org/2000/svg" xmlns:xlink="http://www.w3.org/1999/xlink" x="0px" y="0px"
	 viewBox="0 0 750.64 184.6" style="enable-background:new 0 0 750.64 184.6;" xml:space="preserve">
<style type="text/css">
	.st0{display:none;}
	.st1{display:inline;fill:#1B75BC;}
	.st2{display:inline;fill:#00A651;}
	.st3{display:inline;fill:#FFFFFF;stroke:#FFFFFF;stroke-width:5;stroke-miterlimit:10;}
	.st4{display:inline;stroke:#FFFFFF;stroke-width:5;stroke-miterlimit:10;}
	.st5{display:inline;fill:none;stroke:#FFFFFF;stroke-width:5;stroke-miterlimit:10;}
	.st6{font-family:'HelveticaRounded-Bold';}
	.st7{font-size:90px;}
	.st8{display:inline;}
	.st9{fill:#2774B8;}
	.st10{fill:#46B86D;}
</style>
<g id="Layer_1" class="st0">
	<rect x="14.04" y="17.89" class="st1" width="155.23" height="38.81"/>
	<rect x="33.45" y="56.7" class="st2" width="38.81" height="38.81"/>
	<rect x="72.06" y="56.7" class="st1" width="38.81" height="38.81"/>
	<rect x="72.06" y="95.51" class="st1" width="38.81" height="38.81"/>
	<rect x="33.45" y="95.51" class="st2" width="38.81" height="38.81"/>
	<rect x="111.06" y="95.51" class="st2" width="38.81" height="38.81"/>
	<rect x="72.06" y="134.32" class="st2" width="38.81" height="38.81"/>
	<rect x="111.06" y="56.7" class="st2" width="38.81" height="38.81"/>
	<line class="st3" x1="72.35" y1="5.87" x2="72.16" y2="173.13"/>
	<line class="st4" x1="110.97" y1="9.96" x2="110.77" y2="174.62"/>
	<line class="st5" x1="13.51" y1="56.7" x2="170.28" y2="56.7"/>
	<line class="st5" x1="30.35" y1="95.51" x2="153.11" y2="95.51"/>
	<line class="st5" x1="31.83" y1="134.32" x2="152.17" y2="134.32"/>
	<text transform="matrix(1 0 0 1 192.5836 123.3187)" class="st1 st6 st7">Table</text>
	<text transform="matrix(1 0 0 1 434.6266 123.3187)" class="st2 st6 st7">Vision</text>
	<rect x="12.77" y="53.38" class="st8" width="157.51" height="6.64"/>
	<rect x="16.55" y="92.19" class="st8" width="157.51" height="6.64"/>
	<rect x="19.62" y="131" class="st8" width="157.51" height="6.64"/>
	
		<rect x="23.27" y="86.17" transform="matrix(4.027895e-11 -1 1 4.027895e-11 21.5791 200.5485)" class="st8" width="175.58" height="6.64"/>
	
		<rect x="-13.21" y="86.03" transform="matrix(4.147000e-11 -1 1 4.147000e-11 -17.2845 161.407)" class="st8" width="170.54" height="6.64"/>
</g>
<g id="Layer_1_copy">
	<g>
		<path class="st9" d="M221.31,73.55h-14.79c-4.49,0-8.11-2.29-8.11-6.59s3.63-6.59,8.11-6.59h45.24c4.49,0,8.11,2.29,8.11,6.59
			s-3.63,6.59-8.11,6.59h-14.79v48.96c0,4.68-3.05,7.83-7.83,7.83c-4.77,0-7.83-3.15-7.83-7.83V73.55z"/>
		<path class="st9" d="M300.44,115.64c0,5.82,1.43,7.16,1.43,9.35c0,3.15-2.96,5.35-6.3,5.35c-6.01,0-8.02-3.82-8.21-8.11
			c-5.44,6.01-11.74,8.11-19.09,8.11c-7.92,0-15.75-5.44-15.75-14.22c0-11.55,8.78-14.79,19.47-16.03l8.5-0.96
			c3.34-0.38,6.01-1.15,6.01-5.15c0-4.01-4.1-5.73-8.78-5.73c-10.31,0-10.59,7.64-16.13,7.64c-3.53,0-5.92-2.48-5.92-5.34
			c0-5.54,7.83-12.6,22.14-12.6c13.36,0,22.62,4.29,22.62,14.32V115.64z M286.5,105.62c-1.53,1.43-4.39,1.91-6.01,2.2l-5.06,0.76
			c-5.82,0.86-8.97,2.67-8.97,6.87c0,3.15,2.96,5.73,7.73,5.73c7.64,0,12.31-4.96,12.31-10.12V105.62z"/>
		<path class="st9" d="M311.99,66.1c0-4.58,2.77-6.97,6.97-6.97c4.2,0,6.97,2.39,6.97,6.97V85h0.19c2.77-4.49,7.54-7.06,13.74-7.06
			c14.7,0,21.47,12.5,21.47,25.86c0,18.04-10.21,26.53-21.86,26.53c-6.78,0-12.41-2.86-14.7-8.78h-0.19v2.2
			c0,4.29-2.2,6.59-6.3,6.59c-4.29,0-6.3-2.29-6.3-6.59V66.1z M336.33,88.82c-8.5-0.1-11.17,8.3-11.17,15.46
			c0,7.92,3.05,15.18,11.17,15.18c7.44-0.19,11.07-6.97,11.07-15.18C347.4,97.79,345.2,88.82,336.33,88.82z"/>
		<path class="st9" d="M370.59,66.1c0-4.58,2.77-6.97,6.97-6.97s6.97,2.39,6.97,6.97v57.27c0,4.58-2.77,6.97-6.97,6.97
			s-6.97-2.39-6.97-6.97V66.1z"/>
		<path class="st9" d="M407.72,106.76c0,7.35,4.77,12.69,12.88,12.69c10.5,0,10.5-6.87,16.13-6.87c3.34,0,5.73,2.86,5.73,5.44
			c0,8.4-13.46,12.31-21.86,12.31c-19.47,0-26.82-13.17-26.82-25.29c0-16.23,9.83-27.11,26.34-27.11c16.03,0,25.2,11.36,25.2,22.81
			c0,4.77-1.43,6.01-6.11,6.01H407.72z M432.16,98.74c-0.76-6.39-5.54-11.07-11.74-11.07c-6.97,0-11.17,4.29-12.69,11.07H432.16z"/>
	</g>
	<g>
		<path class="st10" d="M494.14,124.9c-1.62,4.49-4.68,5.44-9.54,5.44c-4.87,0-7.92-0.96-9.54-5.44l-19.28-54.21
			c-0.67-1.81-0.95-3.34-0.95-4.58c0-5.25,4.01-6.97,7.92-6.97c4.2,0,6.49,2.2,7.92,6.87l14.13,46.77h0.19l14.7-46.77
			c1.43-4.68,3.72-6.87,7.35-6.87c3.91,0,7.92,1.72,7.92,6.97c0,1.24-0.29,2.77-0.95,4.58L494.14,124.9z"/>
		<path class="st10" d="M528.6,58.75c4.01,0,7.25,3.24,7.25,7.25s-3.25,7.25-7.25,7.25s-7.25-3.25-7.25-7.25
			S524.59,58.75,528.6,58.75z M521.63,84.91c0-3.72,1.53-6.97,6.97-6.97s6.97,3.25,6.97,6.97v38.46c0,3.72-1.53,6.97-6.97,6.97
			s-6.97-3.25-6.97-6.97V84.91z"/>
		<path class="st10" d="M565.64,77.94c10.59,0,21.28,4.2,21.28,10.59c0,3.25-2.2,6.11-5.82,6.11c-5.44,0-5.63-6.4-14.41-6.4
			c-4.87,0-8.02,1.34-8.02,4.29c0,3.25,3.15,4.01,7.44,4.96l5.82,1.34c7.92,1.81,17.37,5.15,17.37,14.89
			c0,11.36-10.98,16.61-21.48,16.61c-12.6,0-23.1-5.63-23.1-12.5c0-3.05,1.72-5.82,5.63-5.82c6.01,0,6.59,8.59,16.89,8.59
			c4.96,0,8.11-2.2,8.11-5.06c0-3.53-3.05-4.1-8.02-5.34l-8.21-2c-8.11-2-14.41-5.34-14.41-14.7
			C544.73,82.14,555.99,77.94,565.64,77.94z"/>
		<path class="st10" d="M605.44,58.75c4.01,0,7.25,3.24,7.25,7.25s-3.25,7.25-7.25,7.25s-7.25-3.25-7.25-7.25
			S601.43,58.75,605.44,58.75z M598.47,84.91c0-3.72,1.53-6.97,6.97-6.97s6.97,3.25,6.97,6.97v38.46c0,3.72-1.53,6.97-6.97,6.97
			s-6.97-3.25-6.97-6.97V84.91z"/>
		<path class="st10" d="M647.43,77.94c16.8,0,25.77,11.45,25.77,26.15c0,13.93-6.78,26.25-25.77,26.25s-25.77-12.31-25.77-26.25
			C621.66,89.39,630.64,77.94,647.43,77.94z M647.43,120.03c8.3,0,11.83-7.44,11.83-15.94c0-9.07-3.72-15.84-11.83-15.84
			c-8.11,0-11.83,6.78-11.83,15.84C635.6,112.58,639.13,120.03,647.43,120.03z"/>
		<path class="st10" d="M681.7,84.91c0-4.2,1.91-6.97,6.3-6.97s6.3,2.77,6.3,6.97v1.81h0.19c3.91-5.15,8.97-8.78,16.89-8.78
			c8.4,0,17.56,4.2,17.56,18.33v27.11c0,3.72-1.53,6.97-6.97,6.97c-5.44,0-6.97-3.25-6.97-6.97V99.03c0-5.63-2.77-9.64-8.78-9.64
			c-4.87,0-10.59,4.01-10.59,10.98v23c0,3.72-1.53,6.97-6.97,6.97s-6.97-3.25-6.97-6.97V84.91z"/>
	</g>
	<g>
		<rect x="75.38" y="17.89" class="st9" width="32.36" height="35.49"/>
		<rect x="114.38" y="17.89" class="st9" width="54.89" height="35.49"/>
		<rect x="14.04" y="17.89" class="st9" width="54.7" height="35.49"/>
		<rect x="33.45" y="60.02" class="st10" width="35.3" height="32.17"/>
		<rect x="75.38" y="60.02" class="st9" width="32.36" height="32.17"/>
		<rect x="75.38" y="98.83" class="st9" width="32.36" height="32.17"/>
		<rect x="33.45" y="99.43" class="st10" width="35.3" height="32.17"/>
		<rect x="114.38" y="98.83" class="st10" width="35.49" height="32.17"/>
		<rect x="76.89" y="137.64" class="st10" width="32.36" height="35.49"/>
		<rect x="114.38" y="60.02" class="st10" width="35.49" height="32.17"/>
	</g>
</g>
</svg>
