<?xml version="1.0" encoding="utf-8"?>
<!-- Generator: Adobe Illustrator 24.1.0, SVG Export Plug-In . SVG Version: 6.00 Build 0)  -->
<svg version="1.1" id="Layer_1" xmlns="http://www.w3.org/2000/svg" xmlns:xlink="http://www.w3.org/1999/xlink" x="0px" y="0px"
	 viewBox="0 0 201.5 105.7" style="enable-background:new 0 0 201.5 105.7;" xml:space="preserve">
<style type="text/css">
	.st0{display:none;}
	.st1{display:inline;fill:#ED1C24;}
	.st2{fill:#3374BA;}
	.st3{fill-rule:evenodd;clip-rule:evenodd;fill:#3374BA;}
	.st4{clip-path:url(#SVGID_4_);fill:#3374BA;}
	.st5{clip-path:url(#SVGID_8_);fill:#3374BA;}
	.st6{clip-path:url(#SVGID_12_);fill:#3374BA;}
	.st7{clip-path:url(#SVGID_16_);fill:#3374BA;}
	.st8{clip-path:url(#SVGID_20_);fill:#3374BA;}
	.st9{clip-path:url(#SVGID_24_);fill:#3374BA;}
	.st10{clip-path:url(#SVGID_28_);fill:#3374BA;}
	.st11{clip-path:url(#SVGID_30_);fill:#3374BA;}
	.st12{clip-path:url(#SVGID_32_);fill:#3374BA;}
	.st13{clip-path:url(#SVGID_34_);fill:#3374BA;}
	.st14{clip-path:url(#SVGID_36_);fill:#3374BA;}
	.st15{clip-path:url(#SVGID_38_);fill:#3374BA;}
	.st16{clip-path:url(#SVGID_40_);fill:#3374BA;}
	.st17{clip-path:url(#SVGID_42_);fill:#3374BA;}
	.st18{fill-rule:evenodd;clip-rule:evenodd;fill:#C6C6C5;}
	.st19{fill:none;}
	.st20{fill:none;stroke:#3374BA;stroke-width:1;stroke-miterlimit:9.9996;}
</style>
<g id="Layer_2_1_">
</g>
<g id="Layer_1_2_">
	<g id="Layer_1_1_" class="st0">
		
			<image style="display:inline;overflow:visible;opacity:0.33;enable-background:new    ;" width="400" height="400" xlink:href="C:\Users\giris\Desktop\2C827BAD.png"  transform="matrix(1 0 0 1 2.2128 -171.4043)">
		</image>
	</g>
	<g id="Layer_2_2_" class="st0">
		<path class="st1" d="M271.9,4.3h-61.7c-4.1,0-7.4,3.3-7.4,7.4v93.4c0,4.1,3.3,7.4,7.4,7.4h61.7c4.1,0,7.4-3.3,7.4-7.4V11.7
			C279.3,7.6,275.9,4.3,271.9,4.3z M274.7,103.8c0,2.2-1.8,4-4,4h-59.3c-2.2,0-4-1.8-4-4V13.7c0-2.2,1.8-4,4-4h59.3c2.2,0,4,1.8,4,4
			V103.8z"/>
	</g>
	<g id="Layer_2_copy">
		<path class="st2" d="M57.3,4.1H11.6c-3.7,0-6.8,3-6.8,6.8v85.3c0,3.7,3,6.8,6.8,6.8h56.3c3.7,0,6.8-3,6.8-6.8V24.6L57.3,4.1z
			 M70.5,94.8c0,2-1.7,3.7-3.7,3.7H12.7c-2,0-3.7-1.7-3.7-3.7V12.6c0-2,1.7-3.7,3.7-3.7h39.8v19.9h18V94.8z"/>
	</g>
	<g id="Layer_4">
		<g>
			<g>
				<path id="SVGID_1_" class="st3" d="M40.3,40c2.5,0,4.5,2,4.5,4.5s-2,4.5-4.5,4.5s-4.5-2-4.5-4.5C35.7,42,37.8,40,40.3,40"/>
			</g>
			<g>
				<g>
					<defs>
						<path id="SVGID_2_" d="M40.3,40c2.5,0,4.5,2,4.5,4.5s-2,4.5-4.5,4.5s-4.5-2-4.5-4.5C35.7,42,37.8,40,40.3,40"/>
					</defs>
					<clipPath id="SVGID_4_">
						<use xlink:href="#SVGID_2_"  style="overflow:visible;"/>
					</clipPath>
					<rect x="35.7" y="40" class="st4" width="9" height="9"/>
				</g>
			</g>
		</g>
		<g>
			<g>
				<path id="SVGID_3_" class="st3" d="M23.3,46c1.5,0,2.6-1.2,2.6-2.6c0-1.5-1.2-2.6-2.6-2.6c-1.5,0-2.6,1.2-2.6,2.6
					C20.7,44.8,21.9,46,23.3,46"/>
			</g>
			<g>
				<g>
					<defs>
						<path id="SVGID_6_" d="M23.3,46c1.5,0,2.6-1.2,2.6-2.6c0-1.5-1.2-2.6-2.6-2.6c-1.5,0-2.6,1.2-2.6,2.6
							C20.7,44.8,21.9,46,23.3,46"/>
					</defs>
					<clipPath id="SVGID_8_">
						<use xlink:href="#SVGID_6_"  style="overflow:visible;"/>
					</clipPath>
					<rect x="20.7" y="40.7" class="st5" width="5.3" height="5.3"/>
				</g>
			</g>
		</g>
		<g>
			<g>
				<path id="SVGID_5_" class="st3" d="M29.3,46.7c-1.5,0-2.6,1.2-2.6,2.6c0,1.5,1.2,2.6,2.6,2.6c1.5,0,2.6-1.2,2.6-2.6
					S30.8,46.7,29.3,46.7"/>
			</g>
			<g>
				<g>
					<defs>
						<path id="SVGID_10_" d="M29.3,46.7c-1.5,0-2.6,1.2-2.6,2.6c0,1.5,1.2,2.6,2.6,2.6c1.5,0,2.6-1.2,2.6-2.6S30.8,46.7,29.3,46.7"
							/>
					</defs>
					<clipPath id="SVGID_12_">
						<use xlink:href="#SVGID_10_"  style="overflow:visible;"/>
					</clipPath>
					<rect x="26.7" y="46.7" class="st6" width="5.3" height="5.3"/>
				</g>
			</g>
		</g>
		<g>
			<g>
				<path id="SVGID_7_" class="st3" d="M35.3,58c1.5,0,2.6-1.2,2.6-2.6c0-1.5-1.2-2.6-2.6-2.6c-1.5,0-2.6,1.2-2.6,2.6
					S33.9,58,35.3,58"/>
			</g>
			<g>
				<g>
					<defs>
						<path id="SVGID_14_" d="M35.3,58c1.5,0,2.6-1.2,2.6-2.6c0-1.5-1.2-2.6-2.6-2.6c-1.5,0-2.6,1.2-2.6,2.6S33.9,58,35.3,58"/>
					</defs>
					<clipPath id="SVGID_16_">
						<use xlink:href="#SVGID_14_"  style="overflow:visible;"/>
					</clipPath>
					<rect x="32.7" y="52.7" class="st7" width="5.3" height="5.3"/>
				</g>
			</g>
		</g>
		<g>
			<g>
				<path id="SVGID_9_" class="st3" d="M41.3,58.7c1.5,0,2.6,1.2,2.6,2.6c0,1.5-1.2,2.6-2.6,2.6c-1.5,0-2.6-1.2-2.6-2.6
					S39.9,58.7,41.3,58.7"/>
			</g>
			<g>
				<g>
					<defs>
						<path id="SVGID_18_" d="M41.3,58.7c1.5,0,2.6,1.2,2.6,2.6c0,1.5-1.2,2.6-2.6,2.6c-1.5,0-2.6-1.2-2.6-2.6S39.9,58.7,41.3,58.7"
							/>
					</defs>
					<clipPath id="SVGID_20_">
						<use xlink:href="#SVGID_18_"  style="overflow:visible;"/>
					</clipPath>
					<rect x="38.7" y="58.7" class="st8" width="5.3" height="5.3"/>
				</g>
			</g>
		</g>
		<g>
			<g>
				<path id="SVGID_11_" class="st3" d="M47.3,70c-1.5,0-2.6-1.2-2.6-2.6c0-1.5,1.2-2.6,2.6-2.6c1.5,0,2.6,1.2,2.6,2.6
					C50,68.8,48.8,70,47.3,70"/>
			</g>
			<g>
				<g>
					<defs>
						<path id="SVGID_22_" d="M47.3,70c-1.5,0-2.6-1.2-2.6-2.6c0-1.5,1.2-2.6,2.6-2.6c1.5,0,2.6,1.2,2.6,2.6
							C50,68.8,48.8,70,47.3,70"/>
					</defs>
					<clipPath id="SVGID_24_">
						<use xlink:href="#SVGID_22_"  style="overflow:visible;"/>
					</clipPath>
					<rect x="44.7" y="64.7" class="st9" width="5.3" height="5.3"/>
				</g>
			</g>
		</g>
		<g>
			<g>
				<path id="SVGID_13_" class="st3" d="M53.4,70.8c1.5,0,2.6,1.2,2.6,2.6c0,1.5-1.2,2.6-2.6,2.6c-1.5,0-2.6-1.2-2.6-2.6
					C50.7,71.9,51.9,70.8,53.4,70.8"/>
			</g>
			<g>
				<g>
					<defs>
						<path id="SVGID_26_" d="M53.4,70.8c1.5,0,2.6,1.2,2.6,2.6c0,1.5-1.2,2.6-2.6,2.6c-1.5,0-2.6-1.2-2.6-2.6
							C50.7,71.9,51.9,70.8,53.4,70.8"/>
					</defs>
					<clipPath id="SVGID_28_">
						<use xlink:href="#SVGID_26_"  style="overflow:visible;"/>
					</clipPath>
					<rect x="50.7" y="70.8" class="st10" width="5.3" height="5.3"/>
				</g>
			</g>
		</g>
		<g>
			<g>
				<path id="SVGID_15_" class="st3" d="M59.4,82c-1.5,0-2.6-1.2-2.6-2.6c0-1.5,1.2-2.6,2.6-2.6c1.5,0,2.6,1.2,2.6,2.6
					S60.8,82,59.4,82"/>
			</g>
			<g>
				<g>
					<defs>
						<path id="SVGID_29_" d="M59.4,82c-1.5,0-2.6-1.2-2.6-2.6c0-1.5,1.2-2.6,2.6-2.6c1.5,0,2.6,1.2,2.6,2.6S60.8,82,59.4,82"/>
					</defs>
					<clipPath id="SVGID_30_">
						<use xlink:href="#SVGID_29_"  style="overflow:visible;"/>
					</clipPath>
					<rect x="56.7" y="76.8" class="st11" width="5.3" height="5.3"/>
				</g>
			</g>
		</g>
		<g>
			<g>
				<path id="SVGID_17_" class="st3" d="M47.3,58c-1.5,0-2.6-1.2-2.6-2.6c0-1.5,1.2-2.6,2.6-2.6c1.5,0,2.6,1.2,2.6,2.6
					C50,56.8,48.8,58,47.3,58"/>
			</g>
			<g>
				<g>
					<defs>
						<path id="SVGID_31_" d="M47.3,58c-1.5,0-2.6-1.2-2.6-2.6c0-1.5,1.2-2.6,2.6-2.6c1.5,0,2.6,1.2,2.6,2.6
							C50,56.8,48.8,58,47.3,58"/>
					</defs>
					<clipPath id="SVGID_32_">
						<use xlink:href="#SVGID_31_"  style="overflow:visible;"/>
					</clipPath>
					<rect x="44.7" y="52.7" class="st12" width="5.3" height="5.3"/>
				</g>
			</g>
		</g>
		<g>
			<g>
				<path id="SVGID_19_" class="st3" d="M53.4,46.7c1.5,0,2.6,1.2,2.6,2.6c0,1.5-1.2,2.6-2.6,2.6c-1.5,0-2.6-1.2-2.6-2.6
					C50.7,47.9,51.9,46.7,53.4,46.7"/>
			</g>
			<g>
				<g>
					<defs>
						<path id="SVGID_33_" d="M53.4,46.7c1.5,0,2.6,1.2,2.6,2.6c0,1.5-1.2,2.6-2.6,2.6c-1.5,0-2.6-1.2-2.6-2.6
							C50.7,47.9,51.9,46.7,53.4,46.7"/>
					</defs>
					<clipPath id="SVGID_34_">
						<use xlink:href="#SVGID_33_"  style="overflow:visible;"/>
					</clipPath>
					<rect x="50.7" y="46.7" class="st13" width="5.3" height="5.3"/>
				</g>
			</g>
		</g>
		<g>
			<g>
				<path id="SVGID_21_" class="st3" d="M59.4,46c-1.5,0-2.6-1.2-2.6-2.6c0-1.5,1.2-2.6,2.6-2.6c1.5,0,2.6,1.2,2.6,2.6
					S60.8,46,59.4,46"/>
			</g>
			<g>
				<g>
					<defs>
						<path id="SVGID_35_" d="M59.4,46c-1.5,0-2.6-1.2-2.6-2.6c0-1.5,1.2-2.6,2.6-2.6c1.5,0,2.6,1.2,2.6,2.6S60.8,46,59.4,46"/>
					</defs>
					<clipPath id="SVGID_36_">
						<use xlink:href="#SVGID_35_"  style="overflow:visible;"/>
					</clipPath>
					<rect x="56.7" y="40.7" class="st14" width="5.3" height="5.3"/>
				</g>
			</g>
		</g>
		<g>
			<g>
				<path id="SVGID_23_" class="st3" d="M35.3,70c1.5,0,2.6-1.2,2.6-2.6c0-1.5-1.2-2.6-2.6-2.6c-1.5,0-2.6,1.2-2.6,2.6
					S33.9,70,35.3,70"/>
			</g>
			<g>
				<g>
					<defs>
						<path id="SVGID_37_" d="M35.3,70c1.5,0,2.6-1.2,2.6-2.6c0-1.5-1.2-2.6-2.6-2.6c-1.5,0-2.6,1.2-2.6,2.6S33.9,70,35.3,70"/>
					</defs>
					<clipPath id="SVGID_38_">
						<use xlink:href="#SVGID_37_"  style="overflow:visible;"/>
					</clipPath>
					<rect x="32.7" y="64.7" class="st15" width="5.3" height="5.3"/>
				</g>
			</g>
		</g>
		<g>
			<g>
				<path id="SVGID_25_" class="st3" d="M29.3,70.8c-1.5,0-2.6,1.2-2.6,2.6c0,1.5,1.2,2.6,2.6,2.6c1.5,0,2.6-1.2,2.6-2.6
					C31.9,71.9,30.8,70.8,29.3,70.8"/>
			</g>
			<g>
				<g>
					<defs>
						<path id="SVGID_39_" d="M29.3,70.8c-1.5,0-2.6,1.2-2.6,2.6c0,1.5,1.2,2.6,2.6,2.6c1.5,0,2.6-1.2,2.6-2.6
							C31.9,71.9,30.8,70.8,29.3,70.8"/>
					</defs>
					<clipPath id="SVGID_40_">
						<use xlink:href="#SVGID_39_"  style="overflow:visible;"/>
					</clipPath>
					<rect x="26.7" y="70.8" class="st16" width="5.3" height="5.3"/>
				</g>
			</g>
		</g>
		<g>
			<g>
				<path id="SVGID_27_" class="st3" d="M23.3,82c1.5,0,2.6-1.2,2.6-2.6c0-1.5-1.2-2.6-2.6-2.6c-1.5,0-2.6,1.2-2.6,2.6
					C20.7,80.8,21.9,82,23.3,82"/>
			</g>
			<g>
				<g>
					<defs>
						<path id="SVGID_41_" d="M23.3,82c1.5,0,2.6-1.2,2.6-2.6c0-1.5-1.2-2.6-2.6-2.6c-1.5,0-2.6,1.2-2.6,2.6
							C20.7,80.8,21.9,82,23.3,82"/>
					</defs>
					<clipPath id="SVGID_42_">
						<use xlink:href="#SVGID_41_"  style="overflow:visible;"/>
					</clipPath>
					<rect x="20.7" y="76.8" class="st17" width="5.3" height="5.3"/>
				</g>
			</g>
		</g>
		<path class="st18" d="M17.3,58.7c-1.5,0-2.6,1.2-2.6,2.6c0,1.5,1.2,2.6,2.6,2.6c1.5,0,2.6-1.2,2.6-2.6S18.7,58.7,17.3,58.7
			 M17.3,70.8c-1.5,0-2.6,1.2-2.6,2.6c0,1.5,1.2,2.6,2.6,2.6c1.5,0,2.6-1.2,2.6-2.6C19.9,71.9,18.7,70.8,17.3,70.8z M23.3,70
			c1.5,0,2.6-1.2,2.6-2.6c0-1.5-1.2-2.6-2.6-2.6c-1.5,0-2.6,1.2-2.6,2.6C20.7,68.8,21.9,70,23.3,70z M29.3,58.7
			c-1.5,0-2.6,1.2-2.6,2.6c0,1.5,1.2,2.6,2.6,2.6c1.5,0,2.6-1.2,2.6-2.6S30.8,58.7,29.3,58.7z M23.3,58c1.5,0,2.6-1.2,2.6-2.6
			c0-1.5-1.2-2.6-2.6-2.6c-1.5,0-2.6,1.2-2.6,2.6C20.7,56.8,21.9,58,23.3,58z M17.3,46.7c-1.5,0-2.6,1.2-2.6,2.6
			c0,1.5,1.2,2.6,2.6,2.6c1.5,0,2.6-1.2,2.6-2.6S18.7,46.7,17.3,46.7z M65.4,46.7c1.5,0,2.6,1.2,2.6,2.6c0,1.5-1.2,2.6-2.6,2.6
			c-1.5,0-2.6-1.2-2.6-2.6C62.7,47.9,63.9,46.7,65.4,46.7z M59.4,58c-1.5,0-2.6-1.2-2.6-2.6c0-1.5,1.2-2.6,2.6-2.6
			c1.5,0,2.6,1.2,2.6,2.6S60.8,58,59.4,58z M53.4,58.7c1.5,0,2.6,1.2,2.6,2.6c0,1.5-1.2,2.6-2.6,2.6c-1.5,0-2.6-1.2-2.6-2.6
			C50.7,59.9,51.9,58.7,53.4,58.7z M65.4,70.8c1.5,0,2.6,1.2,2.6,2.6c0,1.5-1.2,2.6-2.6,2.6c-1.5,0-2.6-1.2-2.6-2.6
			C62.7,71.9,63.9,70.8,65.4,70.8z M65.4,58.7c1.5,0,2.6,1.2,2.6,2.6c0,1.5-1.2,2.6-2.6,2.6c-1.5,0-2.6-1.2-2.6-2.6
			C62.7,59.9,63.9,58.7,65.4,58.7z M59.4,70c-1.5,0-2.6-1.2-2.6-2.6c0-1.5,1.2-2.6,2.6-2.6c1.5,0,2.6,1.2,2.6,2.6S60.8,70,59.4,70z"
			/>
		<g>
			<path class="st2" d="M147.9,53.3h-4.4v7.3h4.3c1.3,0,2.2-0.3,2.9-0.9c0.7-0.6,1-1.4,1-2.5s-0.3-2.1-1-2.8S149,53.3,147.9,53.3z"
				/>
			<path class="st2" d="M107.9,53.3H104v7h3.8c1.2,0,2.1-0.3,2.8-0.9c0.7-0.6,1-1.5,1-2.5c0-1.1-0.3-2-0.9-2.6
				S109.2,53.3,107.9,53.3z"/>
			<path class="st2" d="M87.2,53.3h-4.4v7.3h4.3c1.3,0,2.2-0.3,2.9-0.9s1-1.4,1-2.5s-0.3-2.1-1-2.8S88.4,53.3,87.2,53.3z"/>
		</g>
		<g>
			<polygon class="st19" points="125,62.5 134.2,62.5 134.2,58.8 125,58.8 125,53.3 135.7,53.3 135.7,49.4 120.2,49.4 120.2,72.6 
				135.7,72.6 135.8,72.6 135.8,68.7 125,68.7 			"/>
			<path class="st19" d="M112.2,62.9c1.4-0.6,2.4-1.4,3.1-2.5s1-2.4,1-4c0-2.3-0.7-4-2.2-5.2s-3.6-1.8-6.3-1.8h-8.6v23.2h4.8v-8.5
				h3.9l4.3,8.5h5v-0.2L112.2,62.9z"/>
			<path class="st19" d="M152.2,50.4c-1.3-0.7-2.9-1-4.6-1h-9v23.2h4.8v-8.2h4.2c2.8,0,4.9-0.7,6.5-2s2.3-3.1,2.2-5.3
				c0-1.5-0.4-2.8-1.1-4C154.5,51.9,153.5,51.1,152.2,50.4z"/>
			<path class="st19" d="M91.6,50.4c-1.3-0.7-2.9-1-4.6-1h-9v23.2h4.8v-8.2H87c2.8,0,4.9-0.7,6.5-2c1.5-1.3,2.3-3.1,2.2-5.3
				c0-1.5-0.4-2.8-1.1-4C93.9,51.9,92.9,51.1,91.6,50.4z"/>
			<path class="st2" d="M183.1,59.2L165,42.4c-0.4-0.4-1-0.6-1.5-0.6h-91v37.4h91c0.5,0,1.1-0.2,1.5-0.6L183.1,62
				C183.9,61.2,183.9,60,183.1,59.2z M93.5,62.4c-1.6,1.3-3.7,2-6.5,2h-4.2v8.2H78V49.4h9c1.7,0,3.3,0.3,4.6,1
				c1.3,0.7,2.3,1.5,3,2.7s1.1,2.5,1.1,4C95.8,59.3,95,61.1,93.5,62.4z M117.2,72.6h-5l-4.3-8.5H104v8.5h-4.8V49.4h8.6
				c2.7,0,4.8,0.6,6.3,1.8s2.2,2.9,2.2,5.2c0,1.6-0.3,2.9-1,4s-1.7,1.9-3.1,2.5l5,9.5V72.6L117.2,72.6L117.2,72.6z M135.8,72.6
				L135.8,72.6h-15.6V49.4h15.5v3.9H125v5.5h9.2v3.7H125v6.2h10.8V72.6z M154.1,62.4c-1.6,1.3-3.7,2-6.5,2h-4.2v8.2h-4.8V49.4h9
				c1.7,0,3.3,0.3,4.6,1s2.3,1.5,3,2.7s1.1,2.5,1.1,4C156.4,59.3,155.7,61.1,154.1,62.4z M170.3,63.3c-1.5,0-2.8-1.3-2.8-2.8
				s1.3-2.8,2.8-2.8s2.8,1.3,2.8,2.8S171.9,63.3,170.3,63.3z"/>
		</g>
		<path class="st2" d="M9,80.2H8.4c-1.5,0-2.8-1.2-2.8-2.8v-32c0-1.5,1.2-2.8,2.8-2.8H9c1.5,0,2.8,1.2,2.8,2.8v32
			C11.7,79,10.5,80.2,9,80.2z"/>
		
			<ellipse transform="matrix(0.8239 -0.5667 0.5667 0.8239 -7.3208 116.4282)" class="st20" cx="183.7" cy="70" rx="8.5" ry="19.7"/>
	</g>
</g>
</svg>
